<?xml version="1.0"?>
<svg width="1173" height="1280" xmlns="http://www.w3.org/2000/svg" xmlns:svg="http://www.w3.org/2000/svg" preserveAspectRatio="xMidYMid meet" version="1.0">
 <metadata>Created by potrace 1.15, written by Peter Selinger 2001-2017</metadata>

 <g class="layer">
  <title>Layer 1</title>
  <g fill="#000000" id="svg_1" transform="matrix(0.1, 0, 0, -0.1, 0, 0)">
   <path d="m10978,-83c-111,-32 -190,-99 -476,-404c-145,-155 -254,-244 -365,-297c-316,-152 -672,-100 -1173,171c-415,224 -509,251 -600,171c-76,-67 -106,-176 -106,-388c0,-210 35,-445 107,-710c19,-69 87,-279 150,-468c168,-498 215,-695 215,-903c0,-248 -91,-410 -283,-504c-98,-48 -144,-58 -512,-116c-625,-99 -977,-180 -1370,-319c-911,-320 -1619,-879 -2157,-1705c-385,-590 -632,-1207 -893,-2230c-214,-838 -281,-1043 -403,-1221c-106,-156 -441,-503 -652,-675c-232,-190 -480,-350 -766,-492c-177,-89 -281,-134 -660,-290c-400,-165 -552,-252 -694,-396c-181,-183 -262,-408 -264,-731c-1,-137 2,-164 22,-230c95,-300 393,-609 775,-801c146,-74 236,-101 337,-103c107,-1 149,20 176,91c36,93 7,176 -196,563c-152,291 -173,467 -78,660c34,69 58,102 132,176c155,153 353,267 718,412c782,310 1279,423 1604,367c112,-20 171,-38 359,-111l150,-59l2045,-3c1767,-2 2049,0 2065,12c18,13 20,25 17,143c-6,268 -63,389 -219,460c-106,49 -352,83 -601,83c-133,0 -162,8 -162,44c0,85 276,626 476,934c178,272 397,516 519,577c58,29 64,30 200,29c99,-1 159,-6 205,-18c241,-65 355,-237 380,-576c25,-329 49,-428 154,-644c235,-481 734,-986 1114,-1127c73,-27 101,-32 177,-33c105,-1 148,17 208,83c70,78 137,241 137,336c0,122 -55,207 -288,448c-227,234 -334,374 -426,555c-112,222 -189,518 -217,842c-15,172 -6,674 15,864c73,646 247,1103 575,1514c43,53 138,161 212,240c386,412 457,502 549,687c122,247 166,516 141,868c-15,209 -38,339 -105,592c-74,276 -90,388 -83,580c8,258 64,386 262,605c109,120 178,217 207,289c32,83 30,235 -6,399c-73,332 -127,675 -176,1111c-31,285 -44,359 -80,454c-26,69 -95,148 -155,177c-56,27 -171,35 -237,17z" fill="#ffffff" id="svg_2"/>
  </g>
 </g>
</svg>